<mxfile host="app.diagrams.net" agent="Mozilla/5.0 (Macintosh; Intel Mac OS X 10_15_7) AppleWebKit/537.36 (KHTML, like Gecko) Chrome/114.0.0.0 Safari/537.36" version="24.8.0">
  <diagram name="Страница — 1" id="vVW2spYJy6XFFA4plTyB">
    <mxGraphModel dx="1332" dy="968" grid="1" gridSize="10" guides="1" tooltips="1" connect="1" arrows="1" fold="1" page="1" pageScale="1" pageWidth="827" pageHeight="1169" math="0" shadow="0">
      <root>
        <mxCell id="0" />
        <mxCell id="1" parent="0" />
        <mxCell id="A57y-lmYgFKOgDCGpoUl-1" value="Заголовок" style="rounded=0;whiteSpace=wrap;html=1;" vertex="1" parent="1">
          <mxGeometry x="20" y="90" width="110" height="50" as="geometry" />
        </mxCell>
        <mxCell id="A57y-lmYgFKOgDCGpoUl-2" value="Название поля" style="rounded=0;whiteSpace=wrap;html=1;" vertex="1" parent="1">
          <mxGeometry x="20" y="50" width="110" height="40" as="geometry" />
        </mxCell>
        <mxCell id="A57y-lmYgFKOgDCGpoUl-3" value="&lt;div&gt;&lt;br&gt;&lt;/div&gt;Предусловие" style="rounded=0;whiteSpace=wrap;html=1;align=center;" vertex="1" parent="1">
          <mxGeometry x="20" y="180" width="110" height="70" as="geometry" />
        </mxCell>
        <mxCell id="A57y-lmYgFKOgDCGpoUl-4" value="Авторы" style="rounded=0;whiteSpace=wrap;html=1;" vertex="1" parent="1">
          <mxGeometry x="20" y="140" width="110" height="60" as="geometry" />
        </mxCell>
        <mxCell id="A57y-lmYgFKOgDCGpoUl-5" value="Ограничения" style="rounded=0;whiteSpace=wrap;html=1;" vertex="1" parent="1">
          <mxGeometry x="20" y="250" width="110" height="60" as="geometry" />
        </mxCell>
        <mxCell id="A57y-lmYgFKOgDCGpoUl-7" value="Краткое и ясное название сценария, описание задачи" style="rounded=0;whiteSpace=wrap;html=1;" vertex="1" parent="1">
          <mxGeometry x="130" y="90" width="180" height="50" as="geometry" />
        </mxCell>
        <mxCell id="A57y-lmYgFKOgDCGpoUl-8" value="Что содержит" style="rounded=0;whiteSpace=wrap;html=1;" vertex="1" parent="1">
          <mxGeometry x="130" y="50" width="180" height="40" as="geometry" />
        </mxCell>
        <mxCell id="A57y-lmYgFKOgDCGpoUl-9" value="&lt;div&gt;&lt;br&gt;&lt;/div&gt;В каком состоянии должен находиться каждый участник, чтобы юзкейс произошел" style="rounded=0;whiteSpace=wrap;html=1;" vertex="1" parent="1">
          <mxGeometry x="130" y="180" width="180" height="70" as="geometry" />
        </mxCell>
        <mxCell id="A57y-lmYgFKOgDCGpoUl-10" value="Кто взаимодействует с системой. Пользователи и внешние системы" style="rounded=0;whiteSpace=wrap;html=1;" vertex="1" parent="1">
          <mxGeometry x="130" y="140" width="180" height="60" as="geometry" />
        </mxCell>
        <mxCell id="A57y-lmYgFKOgDCGpoUl-11" value="Любые огранич. которые могут повлиять на выполнение сценария" style="rounded=0;whiteSpace=wrap;html=1;" vertex="1" parent="1">
          <mxGeometry x="130" y="250" width="180" height="60" as="geometry" />
        </mxCell>
        <mxCell id="A57y-lmYgFKOgDCGpoUl-17" value="Триггер" style="rounded=0;whiteSpace=wrap;html=1;" vertex="1" parent="1">
          <mxGeometry x="20" y="310" width="110" height="50" as="geometry" />
        </mxCell>
        <mxCell id="A57y-lmYgFKOgDCGpoUl-18" value="&lt;font style=&quot;font-size: 11px;&quot;&gt;Основной сценарий&lt;/font&gt;" style="rounded=0;whiteSpace=wrap;html=1;" vertex="1" parent="1">
          <mxGeometry x="20" y="360" width="110" height="60" as="geometry" />
        </mxCell>
        <mxCell id="A57y-lmYgFKOgDCGpoUl-19" value="Что провоцирует начало сценария" style="rounded=0;whiteSpace=wrap;html=1;" vertex="1" parent="1">
          <mxGeometry x="130" y="310" width="180" height="50" as="geometry" />
        </mxCell>
        <mxCell id="A57y-lmYgFKOgDCGpoUl-20" value="Основная последовательность действий, когда все идет по плану и пользователь достигает успеха&amp;nbsp;" style="rounded=0;whiteSpace=wrap;html=1;" vertex="1" parent="1">
          <mxGeometry x="130" y="360" width="180" height="60" as="geometry" />
        </mxCell>
        <mxCell id="A57y-lmYgFKOgDCGpoUl-23" value="Альтернативный сценарий" style="rounded=0;whiteSpace=wrap;html=1;" vertex="1" parent="1">
          <mxGeometry x="20" y="420" width="110" height="60" as="geometry" />
        </mxCell>
        <mxCell id="A57y-lmYgFKOgDCGpoUl-24" value="Что происходит, если процесс отклоняется от основного сценария, но также достиг успеха" style="rounded=0;whiteSpace=wrap;html=1;" vertex="1" parent="1">
          <mxGeometry x="130" y="420" width="180" height="60" as="geometry" />
        </mxCell>
        <mxCell id="A57y-lmYgFKOgDCGpoUl-26" value="Исключительный сценарий" style="rounded=0;whiteSpace=wrap;html=1;" vertex="1" parent="1">
          <mxGeometry x="20" y="480" width="110" height="60" as="geometry" />
        </mxCell>
        <mxCell id="A57y-lmYgFKOgDCGpoUl-28" value="Что происходит , когда возникла ошибка и цель не может быть достигнута" style="rounded=0;whiteSpace=wrap;html=1;" vertex="1" parent="1">
          <mxGeometry x="130" y="480" width="180" height="60" as="geometry" />
        </mxCell>
        <mxCell id="A57y-lmYgFKOgDCGpoUl-32" value="Пользователь получает информацию по заданному им вопросу" style="rounded=0;whiteSpace=wrap;html=1;" vertex="1" parent="1">
          <mxGeometry x="310" y="90" width="180" height="50" as="geometry" />
        </mxCell>
        <mxCell id="A57y-lmYgFKOgDCGpoUl-33" value="Пример" style="rounded=0;whiteSpace=wrap;html=1;" vertex="1" parent="1">
          <mxGeometry x="310" y="50" width="180" height="40" as="geometry" />
        </mxCell>
        <mxCell id="A57y-lmYgFKOgDCGpoUl-34" value="Пользователь должен войти в приложение" style="rounded=0;whiteSpace=wrap;html=1;" vertex="1" parent="1">
          <mxGeometry x="310" y="200" width="180" height="50" as="geometry" />
        </mxCell>
        <mxCell id="A57y-lmYgFKOgDCGpoUl-35" value="Пользователь приложения" style="rounded=0;whiteSpace=wrap;html=1;" vertex="1" parent="1">
          <mxGeometry x="310" y="140" width="180" height="60" as="geometry" />
        </mxCell>
        <mxCell id="A57y-lmYgFKOgDCGpoUl-36" value="Нельзя оставить поле вопроса пустым" style="rounded=0;whiteSpace=wrap;html=1;" vertex="1" parent="1">
          <mxGeometry x="310" y="250" width="180" height="60" as="geometry" />
        </mxCell>
        <mxCell id="A57y-lmYgFKOgDCGpoUl-37" value="Клиент нажал &quot;Задать вопрос&quot;" style="rounded=0;whiteSpace=wrap;html=1;" vertex="1" parent="1">
          <mxGeometry x="310" y="310" width="180" height="50" as="geometry" />
        </mxCell>
        <mxCell id="A57y-lmYgFKOgDCGpoUl-38" value="Пользователь задает новый вопрос&amp;nbsp;" style="rounded=0;whiteSpace=wrap;html=1;" vertex="1" parent="1">
          <mxGeometry x="310" y="360" width="180" height="60" as="geometry" />
        </mxCell>
        <mxCell id="A57y-lmYgFKOgDCGpoUl-39" value="Пользователь выбирает вернуться к ранее заданному вопросу" style="rounded=0;whiteSpace=wrap;html=1;" vertex="1" parent="1">
          <mxGeometry x="310" y="420" width="180" height="60" as="geometry" />
        </mxCell>
        <mxCell id="A57y-lmYgFKOgDCGpoUl-40" value="-" style="rounded=0;whiteSpace=wrap;html=1;" vertex="1" parent="1">
          <mxGeometry x="310" y="480" width="180" height="60" as="geometry" />
        </mxCell>
        <mxCell id="A57y-lmYgFKOgDCGpoUl-42" value="1. На основном экране есть кнопка &quot;задать вопрос&quot;&lt;div&gt;2.Пользователь нажимает на &quot;задать вопрос&quot;&lt;/div&gt;&lt;div&gt;3.Всплывает окно поверх главного экрана&lt;/div&gt;&lt;div&gt;4.Пользователь нажимает &quot;новый вопрос&quot;&amp;nbsp;&lt;/div&gt;&lt;div&gt;5.На всплывающем окне появляется поле для ввода темы и поля с описанием вопроса&lt;/div&gt;&lt;div&gt;6.Пользователь вводит свой вопрос&lt;/div&gt;&lt;div&gt;7.Система отправляет&amp;nbsp;&lt;span style=&quot;background-color: initial;&quot;&gt;пользователю&lt;/span&gt;&lt;span style=&quot;background-color: initial;&quot;&gt;&amp;nbsp;ответ оператора&lt;/span&gt;&lt;/div&gt;" style="text;html=1;align=center;verticalAlign=middle;whiteSpace=wrap;rounded=0;" vertex="1" parent="1">
          <mxGeometry x="540" y="330" width="300" height="120" as="geometry" />
        </mxCell>
        <mxCell id="A57y-lmYgFKOgDCGpoUl-43" value="4a.Пользователь нажимает на &quot;Вопрос 1/2/3&quot; и хочет вернуться к ранее заданному вопросу&lt;div&gt;5a.На в&lt;span style=&quot;background-color: initial;&quot;&gt;сплывающем окне появляется ранее заданный вопрос с ответами оператора и поле для ввода дополнительного вопроса по этой теме&amp;nbsp;&lt;br&gt;&lt;/span&gt;&lt;/div&gt;&lt;div&gt;&lt;br&gt;&lt;/div&gt;&lt;div&gt;--Переход к шагу 6 основного сценария&lt;/div&gt;" style="text;html=1;align=center;verticalAlign=middle;whiteSpace=wrap;rounded=0;" vertex="1" parent="1">
          <mxGeometry x="550" y="530" width="280" height="125" as="geometry" />
        </mxCell>
        <mxCell id="A57y-lmYgFKOgDCGpoUl-44" value="&lt;div&gt;парно система - клиент&lt;/div&gt;" style="text;html=1;align=center;verticalAlign=middle;whiteSpace=wrap;rounded=0;" vertex="1" parent="1">
          <mxGeometry x="610" y="230" width="160" height="30" as="geometry" />
        </mxCell>
        <mxCell id="A57y-lmYgFKOgDCGpoUl-45" value="&lt;font style=&quot;font-size: 15px;&quot;&gt;Сценарий использования&lt;/font&gt;" style="text;html=1;align=center;verticalAlign=middle;whiteSpace=wrap;rounded=0;" vertex="1" parent="1">
          <mxGeometry x="587.5" y="295" width="205" height="30" as="geometry" />
        </mxCell>
        <mxCell id="A57y-lmYgFKOgDCGpoUl-47" value="" style="endArrow=classic;html=1;rounded=0;exitX=0.5;exitY=0;exitDx=0;exitDy=0;entryX=1.005;entryY=0.382;entryDx=0;entryDy=0;entryPerimeter=0;" edge="1" parent="1" source="A57y-lmYgFKOgDCGpoUl-43" target="A57y-lmYgFKOgDCGpoUl-42">
          <mxGeometry width="50" height="50" relative="1" as="geometry">
            <mxPoint x="430" y="500" as="sourcePoint" />
            <mxPoint x="880" y="310" as="targetPoint" />
            <Array as="points">
              <mxPoint x="690" y="480" />
              <mxPoint x="880" y="480" />
              <mxPoint x="880" y="376" />
            </Array>
          </mxGeometry>
        </mxCell>
        <mxCell id="A57y-lmYgFKOgDCGpoUl-48" value="" style="endArrow=classic;html=1;rounded=0;exitX=0;exitY=0.5;exitDx=0;exitDy=0;" edge="1" parent="1" source="A57y-lmYgFKOgDCGpoUl-42">
          <mxGeometry width="50" height="50" relative="1" as="geometry">
            <mxPoint x="380" y="390" as="sourcePoint" />
            <mxPoint x="510" y="390" as="targetPoint" />
          </mxGeometry>
        </mxCell>
      </root>
    </mxGraphModel>
  </diagram>
</mxfile>
